HIERARCHY
ROOT Hips
{
  OFFSET 17.9206 87.456 -77.1491
  CHANNELS 6 Xposition Yposition Zposition Zrotation Xrotation Yrotation
  JOINT ToSpine
  {
    OFFSET -2.69724 7.43032 -0.144315
    CHANNELS 3 Zrotation Xrotation Yrotation
    JOINT Spine
    {
      OFFSET -0.0310711 10.7595 1.96963
      CHANNELS 3 Zrotation Xrotation Yrotation
      JOINT Spine1
      {
        OFFSET 19.9056 3.91189 0.764692
        CHANNELS 3 Zrotation Xrotation Yrotation
        JOINT Neck
        {
          OFFSET 25.9749 7.03908 -0.130764
          CHANNELS 3 Zrotation Xrotation Yrotation
          JOINT Head
          {
            OFFSET 9.52751 0.295786 -0.907742
            CHANNELS 3 Zrotation Xrotation Yrotation
            End Site
            {
              OFFSET 16.4037 0.713936 2.7358
            }
          }
        }
        JOINT LeftShoulder
        {
          OFFSET 17.7449 4.33886 11.7777
          CHANNELS 3 Zrotation Xrotation Yrotation
          JOINT LeftArm
          {
            OFFSET 0.911315 1.27913 9.80584
            CHANNELS 3 Zrotation Xrotation Yrotation
            JOINT LeftForeArm
            {
              OFFSET 28.6126 1.18197 -3.53199
              CHANNELS 3 Zrotation Xrotation Yrotation
              JOINT LeftHand
              {
                OFFSET 27.5088 0.0218783 0.327423
                CHANNELS 3 Zrotation Xrotation Yrotation
                End Site
                {
                  OFFSET 18.6038 -0.000155887 0.382096
                }
              }
            }
          }
        }
        JOINT RightShoulder
        {
          OFFSET 17.1009 2.89543 -12.2328
          CHANNELS 3 Zrotation Xrotation Yrotation
          JOINT RightArm
          {
            OFFSET 1.4228 0.178766 -10.211
            CHANNELS 3 Zrotation Xrotation Yrotation
            JOINT RightForeArm
            {
              OFFSET 28.733 1.87905 2.64907
              CHANNELS 3 Zrotation Xrotation Yrotation
              JOINT RightHand
              {
                OFFSET 27.4588 0.290562 -0.101845
                CHANNELS 3 Zrotation Xrotation Yrotation
                End Site
                {
                  OFFSET 17.8396 -0.255518 -0.000602873
                }
              }
            }
          }
        }
      }
    }
  }
  JOINT LeftUpLeg
  {
    OFFSET -5.61296 -2.22332 -10.2353
    CHANNELS 3 Zrotation Xrotation Yrotation
    JOINT LeftLeg
    {
      OFFSET 2.56703 -44.7417 -7.93097
      CHANNELS 3 Zrotation Xrotation Yrotation
      JOINT LeftFoot
      {
        OFFSET 3.16933 -46.5642 -3.96578
        CHANNELS 3 Zrotation Xrotation Yrotation
        JOINT LeftToeBase
        {
          OFFSET 0.346054 -6.02161 12.8035
          CHANNELS 3 Zrotation Xrotation Yrotation
          End Site
          {
            OFFSET 0.134235 -1.35082 5.13018
          }
        }
      }
    }
  }
  JOINT RightUpLeg
  {
    OFFSET -5.7928 -1.72406 10.6446
    CHANNELS 3 Zrotation Xrotation Yrotation
    JOINT RightLeg
    {
      OFFSET -2.57161 -44.7178 -7.85259
      CHANNELS 3 Zrotation Xrotation Yrotation
      JOINT RightFoot
      {
        OFFSET -3.10148 -46.5936 -4.03391
        CHANNELS 3 Zrotation Xrotation Yrotation
        JOINT RightToeBase
        {
          OFFSET -0.0828122 -6.13587 12.8035
          CHANNELS 3 Zrotation Xrotation Yrotation
          End Site
          {
            OFFSET -0.131328 -1.35082 5.13018
          }
        }
      }
    }
  }
}
MOTION
Frames:	13
Frame Time:	0.0333333
18.0711 89.3033 -288.572 6.78616 -79.5908 -93.2954 -70.1915 0 88.8779 115.679 69.1701 -38.9839 10.1228 20.0837 -0.181448 -156.143 17.9715 172.766 -143.843 53.2405 163.109 2.53077 0.0819909 -26.0213 -95.7436 40.7855 -87.4875 -5.1512 41.9014 -1.80289 6.26763 -0.53255 -7.66139 0.405819 -1.63678 27.6351 -78.9107 -56.6094 75.9499 14.0083 -10.726 47.2163 11.7363 0.0744983 0.400716 -31.1719 -14.9252 97.8887 -13.9377 76.3292 6.83756 6.82068 8.78082 -0.821652 -11.2885 -45.2261 6.24828 -31.5301 -2.34241 97.9442 169.329 59.8839 -165.707 -7.20438 -2.90671 1.07001 6.74193 -8.26396 -12.8045 
17.2672 90.1456 -274 17.1573 -81.1711 -79.5755 -70.1915 0 88.8779 117.327 67.8296 -38.1575 10.2054 19.0705 1.17756 -155.315 18.1088 174.427 -144.211 53.2723 162.142 2.65076 0.314153 -26.9462 -82.2718 39.6205 -99.579 0.681595 20.9403 -13.6258 7.71623 -0.717221 -8.58297 0.335545 -1.16561 27.2818 -76.5974 -57.1884 73.8442 6.28582 -3.75893 44.4781 11.3075 -0.0513189 -0.91436 -43.0459 -11.5774 95.2522 -19.4557 78.6675 7.40138 7.55673 8.17536 -0.969303 -12.1797 -48.3441 6.06288 -21.7897 -0.625976 95.0141 165.118 73.1588 -164.716 -6.91819 -5.23209 1.06849 8.63246 -13.2388 -15.447 
16.4989 92.4969 -260.454 33.0084 -80.2271 -57.7455 -70.1915 0 88.8779 115.938 66.917 -32.0543 11.4746 17.6102 4.14463 -153.753 18.5653 175.072 -142.682 53.234 160.72 2.60352 0.573866 -26.0456 -70.1256 39.333 -109.289 7.00342 10.9722 -23.5412 7.94001 -0.952898 -11.5311 0.184416 -0.100592 27.2886 -73.6668 -55.1609 74.0516 3.88135 -1.34156 43.7402 7.7697 0.0269798 0.0642523 -48.5049 -6.16255 89.6308 -31.6525 82.3996 19.024 5.18209 3.72859 -0.636782 -7.88029 -31.7133 7.59147 -19.5185 0.0145746 88.6539 18.5816 81.4417 -19.5749 -6.65147 -7.71144 1.08196 8.90467 -11.5538 -17.9096 
16.6382 94.816 -247.464 47.1713 -78.5021 -40.8601 -70.1915 0 88.8779 117.289 65.6829 -30.9903 11.3446 16.6394 6.13094 -152.057 18.4779 174.179 -142.521 52.9997 159.904 2.53677 1.33005 -24.3366 -72.7802 40.7368 -107.002 11.9488 14.6606 -33.9729 12.1683 -1.59279 -12.8326 0.12702 0.279837 27.7479 -70.9061 -52.0687 77.188 4.29982 -1.81195 42.7788 8.02279 0.056608 0.508022 -49.2384 -6.26884 84.8145 -41.3234 84.6327 36.5367 3.95601 8.42996 -0.275038 -6.21237 -23.2239 11.1491 -24.4893 -2.68456 83.9814 3.07912 55.4676 -0.286654 -4.06095 -2.89392 0.765525 4.26522 -4.08149 -8.3827 
16.8345 94.5122 -234.018 51.785 -77.9427 -34.7524 -70.1915 0 88.8779 118.112 66.3385 -28.6678 11.3598 17.5134 5.59894 -150.542 19.3553 174.569 -146.466 55.1457 162.616 2.56571 1.63345 -24.242 -74.6321 38.1743 -103.949 12.6602 13.4352 -38.3877 13.5455 -1.69502 -12.2177 0.126841 0.338283 26.6936 -69.0097 -50.3797 81.3779 1.81207 0.942611 41.2625 8.95955 0.0554315 0.393981 -45.7485 -6.39536 83.6794 -92.6623 86.9949 97.281 5.35766 11.2889 -0.472797 -7.60388 -31.9078 12.6662 -26.7012 -2.59771 83.0286 2.33522 47.9106 1.40724 -3.10786 0.650348 0.517079 0.561753 2.13156 -3.16732 
16.5415 92.7923 -220.286 64.0232 -79.6678 -22.3761 -70.1915 0 88.8779 125.621 67.0736 -34.5321 10.5348 19.9519 4.79278 -149.464 21.5393 173.99 -147.566 57.9056 163.266 2.38873 1.11576 -23.1336 -78.1885 35.5137 -102.181 11.6599 15.0033 -32.5354 6.29713 -0.920307 -14.2344 0.22415 -0.349206 24.8183 -71.217 -49.2254 84.1276 3.2699 -0.707768 40.6955 7.84387 0.00195502 -0.336878 -41.2461 -6.44596 84.7115 -139.489 84.6315 141.042 5.22516 5.77293 -0.589308 -7.9514 -32.7289 9.6604 -29.589 -3.20827 80.0383 4.50281 58.976 2.85344 -5.73781 -3.06286 0.93156 3.79044 12.9225 -16.7213 
15.6113 91.4257 -207.208 86.6636 -82.7849 3.87583 -70.1915 0 88.8779 136.97 66.6832 -42.0463 10.3888 22.077 5.12013 -148.696 23.0641 173.91 -143.919 58.836 161.679 2.35931 0.49724 -23.5914 -79.5223 31.661 -100.819 7.19942 11.1479 -24.0723 8.10293 -0.909448 -10.6942 0.15912 0.295263 23.1751 -72.288 -46.0133 90.9015 6.6271 -5.20369 36.6046 6.67342 0.0868905 1.27543 -35.5676 -0.696215 85.3524 -125.388 85.4204 122.785 7.3328 5.03348 -0.953213 -9.54827 -38.9246 7.16123 -35.3803 1.80495 77.6055 9.12625 70.4239 0.653819 -7.10943 -4.11029 1.07235 7.50574 -2.43322 -19.0519 
14.7132 91.7966 -193.834 73.8493 -82.9965 -7.54811 -70.1915 0 88.8779 135.762 69.6298 -40.2687 9.23205 23.4065 6.13068 -147.119 23.2337 172.085 -144.096 59.0001 159.865 2.37841 0.74735 -23.4743 -86.1659 28.6615 -97.9986 2.39467 12.7799 -16.3335 10.2958 -0.75482 -6.48294 0.111974 0.721838 23.3666 -75.1191 -44.1214 92.767 4.51841 -2.46231 35.3428 9.82186 0.111408 1.01896 -26.9699 0.926016 86.7479 -18.958 80.7931 17.5805 6.94597 5.82222 -0.880766 -9.99829 -41.607 8.2935 -41.1409 3.41772 75.2392 12.5222 73.7671 1.14506 -7.79751 -4.06402 1.13152 9.89154 -16.5437 -17.6944 
14.3924 93.6975 -181.76 74.9503 -80.4483 -10.697 -70.1915 0 88.8779 129.76 71.0046 -40.2843 7.70361 23.3048 5.72293 -143.534 22.4789 169.955 -145.568 58.8472 160.618 2.26578 1.46469 -21.5414 -93.4196 26.4714 -91.8356 -0.733169 12.4155 -12.7503 9.10546 -0.482419 -4.23323 0.118859 0.649356 23.4498 -74.5661 -44.9614 93.7709 3.47434 -0.983034 36.847 6.53959 0.182517 3.16283 -26.4845 -4.83681 90.7805 -3.64673 59.8812 3.39399 5.43369 9.52744 -0.532459 -6.94804 -28.5502 17.0066 -45.8036 -2.45639 75.67 18.9447 78.8674 -6.96468 -6.52232 -6.97506 1.06396 4.62686 -5.14967 -8.60042 
14.6629 95.2569 -169.585 83.7021 -82.2814 -4.11132 -70.1915 0 88.8779 131.256 71.0699 -43.371 9.08783 24.3383 1.68889 -141.549 21.2372 168.585 -147.071 58.1861 162.165 1.98567 1.01696 -19.1745 -97.3167 23.892 -84.0668 -1.58124 7.75407 -12.2242 7.19965 -0.384792 -4.26445 0.130661 0.460132 24.413 -72.3245 -45.8183 94.2154 4.39601 -1.95265 41.9075 6.26356 0.195746 3.60389 -30.4692 -5.73637 94.8013 -2.31619 45.3506 -2.26242 2.44017 11.6396 0.177315 -4.38156 -8.89263 13.8031 -47.2235 -4.1364 79.7042 38.3718 83.8897 -27.8238 -5.90938 -3.32646 0.953181 -9.95832 17.3346 8.33359 
14.7184 94.9548 -156.614 117.716 -87.7506 29.4836 -70.1915 0 88.8779 132.984 72.4026 -44.7968 11.5148 25.8399 -0.583175 -140.809 20.1823 170.508 -145.878 56.3491 160.833 1.8243 1.02478 -17.5297 -101.945 19.8576 -76.7273 -2.58384 8.60641 -9.10871 4.69454 -0.261424 -4.44699 0.157086 0.301733 23.3545 -70.0165 -48.0409 94.6213 7.5727 -4.71323 46.9069 4.32006 0.190333 5.52155 -33.6104 -2.17448 99.1239 -2.2509 44.8587 -1.58931 1.2075 12.3688 0.492746 -2.90373 -0.446105 11.917 -44.9179 -0.211462 87.097 86.8966 86.3859 -82.3142 -5.44063 -2.09657 0.880045 3.34192 3.24499 -10.9243 
14.8751 93.3672 -143.512 -167.929 -87.1962 103.874 -70.1915 0 88.8779 130.341 72.6753 -42.8824 11.9118 25.4591 -0.790661 -139.633 18.7774 172.623 -146.109 54.4402 160.564 1.53351 0.761025 -14.6886 -103.763 17.1376 -70.4757 -3.09146 11.493 -4.51975 5.2998 -0.302308 -4.61318 0.14453 0.519112 22.22 -67.1413 -50.0724 94.1541 11.9539 -7.8854 50.4959 4.1029 0.157504 4.80955 -36.8113 -1.45361 100.191 -2.91896 52.615 0.900962 7.66519 15.5722 -0.948647 -4.93795 -13.9733 12.9423 -40.1009 1.58642 91.9191 126.305 85.6425 -124.951 -6.43776 -3.51535 1.00526 7.45603 -6.58569 -16.4079 
15.6167 91.1192 -130.658 -175.944 -84.7785 95.2374 -70.1915 0 88.8779 129.512 70.9 -43.5967 10.7873 24.326 -0.608925 -138.555 17.5357 173.052 -144.047 52.4782 160.018 1.34674 0.740237 -12.7445 -104.754 14.6824 -66.9713 -3.2068 10.9378 -0.0180573 5.97904 -0.316091 -4.18053 0.153286 0.390592 22.6674 -67.579 -51.5694 89.9901 16.3672 -10.4948 53.6284 4.90284 0.195418 4.85654 -40.0413 -5.43385 96.8376 -4.78687 65.7191 7.19606 9.54251 16.0729 -1.42848 -8.56243 -36.8386 11.4552 -35.7206 -0.125376 94.416 96.9123 86.3181 -92.2566 -7.35588 -8.50002 1.1265 8.18135 -9.64649 -16.7009 
